<?xml version="1.0" standalone="no"?>
<!DOCTYPE svg PUBLIC "-//W3C//DTD SVG 1.1//EN" "http://www.w3.org/Graphics/SVG/1.1/DTD/svg11.dtd">
<svg version="1.1" xmlns="http://www.w3.org/2000/svg" viewBox="0 0 264.59915300794546 253.55537644702008" width="793.7974590238364" height="760.6661293410602"><!-- svg-source:excalidraw --><metadata></metadata><defs><style class="style-fonts">
      </style></defs><g stroke-linecap="round"><g transform="translate(98.869139515411 234.71454814538095) rotate(344.99999999999994 41.923155266461436 -117.03547511887172)" fill-rule="evenodd"><path d="M0.85 -0.48 C-11.62 -24.26, -63.99 -105.48, -74.1 -140.64 C-84.22 -175.8, -69.5 -196.14, -59.82 -211.44 C-50.14 -226.73, -29.75 -229.59, -16.04 -232.41 C-2.34 -235.22, 11.2 -232.87, 22.41 -228.32 C33.62 -223.77, 44.89 -209.75, 51.22 -205.1 C57.54 -200.45, 54.49 -199.19, 60.33 -200.42 C66.17 -201.65, 76.22 -212.23, 86.26 -212.46 C96.3 -212.69, 109.49 -209.97, 120.56 -201.79 C131.62 -193.61, 146.39 -178.1, 152.66 -163.4 C158.94 -148.71, 162.5 -128.72, 158.19 -113.62 C153.88 -98.51, 153.55 -91.68, 126.79 -72.77 C100.03 -53.86, 18.82 -12.29, -2.37 -0.16" stroke="none" stroke-width="0" fill="#fa5252" fill-rule="evenodd"></path><path d="M0.19 -0.58 C-12.18 -23.39, -64.53 -102.69, -74.93 -137.91 C-85.34 -173.14, -71.71 -195.92, -62.25 -211.92 C-52.79 -227.91, -32.35 -231.61, -18.18 -233.9 C-4 -236.18, 10.99 -230.71, 22.8 -225.63 C34.6 -220.55, 46.64 -207.4, 52.66 -203.4 C58.68 -199.4, 53.01 -200.16, 58.93 -201.62 C64.86 -203.08, 77.47 -211.89, 88.21 -212.16 C98.94 -212.43, 112.25 -211.46, 123.34 -203.25 C134.44 -195.04, 148.81 -177.6, 154.77 -162.91 C160.74 -148.23, 164.26 -130.36, 159.15 -115.16 C154.04 -99.96, 150.47 -90.72, 124.11 -71.69 C97.76 -52.65, 21.61 -12.78, 1.03 -0.94 M-1.17 1.74 C-13.62 -21.33, -65.99 -103.75, -75.79 -139.65 C-85.58 -175.55, -69.57 -198.15, -59.94 -213.66 C-50.31 -229.16, -31.6 -230.83, -17.99 -232.7 C-4.39 -234.58, 10.2 -229.62, 21.68 -224.91 C33.15 -220.19, 44.6 -208.06, 50.85 -204.41 C57.1 -200.75, 53.15 -201.6, 59.18 -202.97 C65.21 -204.35, 76.51 -212.45, 87.02 -212.66 C97.53 -212.87, 110.77 -212.51, 122.23 -204.21 C133.7 -195.91, 149.57 -177.33, 155.79 -162.87 C162.01 -148.42, 164.58 -132.58, 159.58 -117.48 C154.58 -102.38, 152.09 -92.07, 125.8 -72.25 C99.5 -52.44, 22.73 -10.45, 1.8 1.41" stroke="#c92a2a" stroke-width="2" fill="none"></path></g></g><mask></mask><g stroke-linecap="round"><g transform="translate(180.09588264131435 13.200538300931498) rotate(329.99999999999994 21.575809295213276 37.44037495345804)" fill-rule="evenodd"><path d="M0.97 1.91 C7.86 8.21, 42.6 27.38, 43.55 39.45 C44.51 51.52, 11.28 75.31, 6.69 74.34 C2.11 73.37, 16.97 46.22, 16.06 33.63 C15.15 21.03, 3.79 4.04, 1.23 -1.22 C-1.33 -6.49, 0.77 1.91, 0.71 2.03" stroke="none" stroke-width="0" fill="#fda9a9" fill-rule="evenodd"></path><path d="M0.18 0.73 C7.15 7.36, 40.61 26.84, 42.04 39.22 C43.47 51.61, 13.33 75.56, 8.76 75.05 C4.19 74.55, 15.95 48.67, 14.63 36.17 C13.31 23.68, 3.4 6.09, 0.84 0.06 C-1.73 -5.97, -0.57 0.04, -0.76 -0.02 M-1.19 0.07 C6.13 6.44, 42.65 24.97, 44.17 37.7 C45.69 50.44, 12.75 77.09, 7.93 76.46 C3.1 75.84, 16.58 46.62, 15.23 33.95 C13.88 21.29, 2.3 6.32, -0.19 0.48 C-2.69 -5.35, 0.19 -0.69, 0.25 -1.07" stroke="#fda9a9" stroke-width="2" fill="none"></path></g></g><mask></mask><g transform="translate(69.91624537625557 47.527341106448716) rotate(0 56.66236415220101 70.82795519025109)"><text x="0" y="108.11179080239927" font-family="Nunito, Segoe UI Emoji" font-size="113.32472830440175px" fill="#ffffff" text-anchor="start" style="white-space: pre;" direction="ltr" dominant-baseline="alphabetic">赏</text></g></svg>